<svg xmlns="http://www.w3.org/2000/svg" xmlns:xlink="http://www.w3.org/1999/xlink" width="865.748" height="909.702" viewBox="0 0 865.748 909.702">
  <defs>
    <clipPath id="clip-path">
      <path id="Path_751" data-name="Path 751" d="M582.534,323.424c.632.556,2.528,24.878,2.528,24.878s12.97,25.611,12.818,64.8,12.464,239.907,12.464,239.907H300s21.566-150.482,52.158-226.634c0,0,.935-62.5,17.7-79.918,0,0-7.281-25.637,7.585-28.8S582.534,323.424,582.534,323.424Z" transform="translate(-300 -316.982)" fill="#999" stroke="#263238" stroke-linecap="round" stroke-linejoin="round" stroke-width="1"/>
    </clipPath>
    <clipPath id="clip-path-2">
      <path id="Path_769" data-name="Path 769" d="M404.41,209.444s-5.385-17.066,6.169-25.51,10.77,42.475,10.77,42.475l11.023,6.169s15.9-42.07,8.217-72.865S401.755,107.1,358.774,118.73c-57.67,15.574-44.7,62.8-44.7,62.8s2.528-13.349,5.259-12.641,11.883,9.481,56.608-5.916c0,0,5.057,4.374,3.919,15.17s18.052,20.4,21.035,38.379Z" transform="translate(-312.826 -115.554)" fill="#999" stroke="#263238" stroke-linecap="round" stroke-linejoin="round" stroke-width="1"/>
    </clipPath>
  </defs>
  <g id="Group_9629" data-name="Group 9629" transform="translate(-922.161 -169.676)">
    <g id="freepik--Bubble--inject-62" transform="translate(1225.25 170.176)">
      <path id="Path_739" data-name="Path 739" d="M336.362,200.961H222.59V109.59" transform="translate(-166.488 -61.427)" fill="none" stroke="#263238" stroke-linecap="round" stroke-linejoin="round" stroke-width="1"/>
      <rect id="Rectangle_2454" data-name="Rectangle 2454" width="9.102" height="16.611" transform="translate(67.378 122.924)" fill="none" stroke="#263238" stroke-linecap="round" stroke-linejoin="round" stroke-width="1"/>
      <rect id="Rectangle_2455" data-name="Rectangle 2455" width="9.102" height="21.869" transform="translate(86.29 117.665)" fill="none" stroke="#263238" stroke-linecap="round" stroke-linejoin="round" stroke-width="1"/>
      <rect id="Rectangle_2456" data-name="Rectangle 2456" width="9.102" height="30.643" transform="translate(105.201 108.892)" fill="none" stroke="#263238" stroke-linecap="round" stroke-linejoin="round" stroke-width="1"/>
      <rect id="Rectangle_2457" data-name="Rectangle 2457" width="9.102" height="39.416" transform="translate(124.138 100.119)" fill="none" stroke="#263238" stroke-linecap="round" stroke-linejoin="round" stroke-width="1"/>
      <rect id="Rectangle_2458" data-name="Rectangle 2458" width="9.102" height="51.804" transform="translate(143.049 87.731)" fill="none" stroke="#263238" stroke-linecap="round" stroke-linejoin="round" stroke-width="1"/>
      <path id="Path_740" data-name="Path 740" d="M222.59,176.725s72.94-15.549,107.831-61.765" transform="translate(-166.488 -53.22)" fill="none" stroke="#263238" stroke-linecap="round" stroke-linejoin="round" stroke-width="1"/>
      <path id="Path_741" data-name="Path 741" d="M263.43,115.567l7.079-1.947v7.787" transform="translate(-104.074 -55.268)" fill="none" stroke="#263238" stroke-linecap="round" stroke-linejoin="round" stroke-width="1"/>
      <path id="Path_742" data-name="Path 742" d="M262.93,92.643c-3.236-.657-6.5-1.214-9.81-1.643" transform="translate(-119.83 -89.837)" fill="none" stroke="#263238" stroke-linecap="round" stroke-linejoin="round" stroke-width="1"/>
      <path id="Path_743" data-name="Path 743" d="M276.046,276.658c27.052,13.905,64.471,14.993,64.471,14.993-18.836-12.919-31.78-31.881-38.328-43.157,20-17.243,32.337-40.68,32.337-66.544,0-39.947-29.353-74.179-71.095-88.489" transform="translate(-104.073 -86.077)" fill="none" stroke="#263238" stroke-linecap="round" stroke-linejoin="round" stroke-width="1"/>
      <path id="Path_744" data-name="Path 744" d="M246,171.179a135.338,135.338,0,0,0,45.939-7.939" transform="translate(-130.711 20.565)" fill="none" stroke="#263238" stroke-linecap="round" stroke-linejoin="round" stroke-width="1"/>
      <path id="Path_745" data-name="Path 745" d="M205.39,145.73c16.358,26.547,47.177,45.939,83.812,50.919" transform="translate(-192.774 -6.195)" fill="none" stroke="#263238" stroke-linecap="round" stroke-linejoin="round" stroke-width="1"/>
      <path id="Path_746" data-name="Path 746" d="M200.4,128.46a81.135,81.135,0,0,0,1.441,15.17" transform="translate(-200.4 -32.588)" fill="none" stroke="#263238" stroke-linecap="round" stroke-linejoin="round" stroke-width="1"/>
      <path id="Path_747" data-name="Path 747" d="M312.22,90.54c-51.147,0-94.532,27.811-109.55,66.139" transform="translate(-196.931 -90.54)" fill="none" stroke="#263238" stroke-linecap="round" stroke-linejoin="round" stroke-width="1"/>
    </g>
    <g id="freepik--Character--inject-62" transform="translate(1072.517 226.227)">
      <path id="Path_748" data-name="Path 748" d="M393.162,191.65s-48.568,14.31-59.515,37.57-32.868,88.236-32.868,88.236-20.529,36.255-20.529,47.2,30.339,51.551,44.042,62.5,64.85-61.133,64.85-61.133Z" transform="translate(74.364 7.932)" fill="#fff" stroke="#263238" stroke-linecap="round" stroke-linejoin="round" stroke-width="1"/>
      <path id="Path_749" data-name="Path 749" d="M582.534,323.424c.632.556,2.528,24.878,2.528,24.878s12.97,25.611,12.818,64.8,12.464,239.907,12.464,239.907H300s21.566-150.482,52.158-226.634c0,0,.935-62.5,17.7-79.918,0,0-7.281-25.637,7.585-28.8S582.534,323.424,582.534,323.424Z" transform="translate(104.548 199.472)" fill="#999"/>
      <g id="Group_9627" data-name="Group 9627" transform="translate(404.548 516.454)" clip-path="url(#clip-path)">
        <path id="Path_750" data-name="Path 750" d="M610.345,603.053H300s21.566-150.482,52.158-226.634c0,0,.177-11.883,1.77-26.749,14.285,6.877,33.12,16.788,38.379,23.589,8.824,11.377-22.5,27.988-22.5,27.988a27.634,27.634,0,0,0,22.5,8.8c13.88-1.39,68.491-13.855,68.491-13.855s-20.4,12.464-17.925,21.313,24.9,37.671,37.09,44.75-24.777-7.079-24.777-7.079,42.02,67.909,67.3,81.486,76.935-28.443,69.527-31.932-37.443-44.371-31.982-51.248c3.135-3.969,21.718,6.472,42.2,11.681C605.92,531.25,610.345,603.053,610.345,603.053Z" transform="translate(-300 -267.026)" opacity="0.2"/>
      </g>
      <path id="Path_752" data-name="Path 752" d="M582.534,323.424c.632.556,2.528,24.878,2.528,24.878s12.97,25.611,12.818,64.8,12.464,239.907,12.464,239.907H300s21.566-150.482,52.158-226.634c0,0,.935-62.5,17.7-79.918,0,0-7.281-25.637,7.585-28.8S582.534,323.424,582.534,323.424Z" transform="translate(104.548 199.472)" fill="none" stroke="#263238" stroke-linecap="round" stroke-linejoin="round" stroke-width="1"/>
      <path id="Path_753" data-name="Path 753" d="M330.738,319.89a74.328,74.328,0,0,0,0,21.844,154.6,154.6,0,0,0,77.34,25.839c44.649,1.9,108.311-10.113,125.781-20.226V323.328Z" transform="translate(150.29 203.916)" fill="#263238"/>
      <path id="Path_754" data-name="Path 754" d="M342.519,325.07s-3.792,20.049,0,27.634,38.076,9.658,38.076,9.658l-1.087-28.544Z" transform="translate(166.952 211.833)" fill="#bfbfbf" stroke="#263238" stroke-linecap="round" stroke-linejoin="round" stroke-width="1"/>
      <path id="Path_755" data-name="Path 755" d="M397.552,360.841a200.518,200.518,0,0,0-5.208-32.311l-10.594.278s5.689,19.544,2.528,32.033" transform="translate(229.483 217.121)" fill="#999" stroke="#263238" stroke-linecap="round" stroke-linejoin="round" stroke-width="1"/>
      <path id="Path_756" data-name="Path 756" d="M347,246.337l-1.315,58.15a471.24,471.24,0,0,1-33.955,42.07c-.632-7.585-1.391-16.56-2.3-26.774-4.222-47.2,11.807-85.127,10.846-87.933Z" transform="translate(117.873 69.368)" fill="#ffc100" opacity="0.2"/>
      <path id="Path_757" data-name="Path 757" d="M334.57,226.473a331.194,331.194,0,0,1,30.668-12.641c1.315-3.438-1.82-13.7,29.833-30.112s77.365-6.144,77.365-6.144l17.7,21.895s61.563,24.5,75.848,36.862,26.269,302,14.386,312.367c-33.929,29.581-177.788,33.626-216.8-5.562-8.444-8.444-14.133-69.578-30.339-160.292,0,0-30.82-70.791-29.151-109.524" transform="translate(110.682 -18.422)" fill="#fff" stroke="#263238" stroke-linecap="round" stroke-linejoin="round" stroke-width="1"/>
      <path id="Path_758" data-name="Path 758" d="M417.351,186.13s3.388,30.339-27.811,50.565c0,0-14.335-9.178-24.448-10.113s-13.6,2.528-13.6,2.528-2.124-11.883,2.731-19.7,14.36-1.8,29.985,19.7C384.306,229.111,410.727,216.141,417.351,186.13Z" transform="translate(182.53 -0.504)" fill="#ffc100" opacity="0.2"/>
      <path id="Path_759" data-name="Path 759" d="M358.332,208.324s-12.313.556-18.482,10.669-8.04,13.905-8.04,13.905-9.911-9.81-2.528-40.149a96.076,96.076,0,0,0,1.163,26.243s6.371-23.462,9.456-23.766S349.129,196.745,358.332,208.324Z" transform="translate(145.121 9.613)" fill="#ffc100" opacity="0.2"/>
      <path id="Path_760" data-name="Path 760" d="M331.81,218.938A45.256,45.256,0,0,1,342.4,260.831l22.173,35.927,13.653-31.806s31.629-8.217,40.857-29.758a134.353,134.353,0,0,1-14.613-81.612C410.667,105.95,331.81,218.938,331.81,218.938Z" transform="translate(153.162 -68.152)" fill="#bfbfbf" stroke="#263238" stroke-linecap="round" stroke-linejoin="round" stroke-width="1"/>
      <path id="Path_761" data-name="Path 761" d="M434.736,214.734c9.784-73.016-12.085-102.142-69.5-98.046s-58.352,68.263-44.649,95.493c4.6,9.152,3.11,29.176,31.654,61.184,10.947,12.287,39.694,3.034,60.274-17.243" transform="translate(124.87 -107.206)" fill="#bfbfbf" stroke="#263238" stroke-linecap="round" stroke-linejoin="round" stroke-width="1"/>
      <path id="Path_762" data-name="Path 762" d="M327.55,150.943s5.638-9.987,21.035,0" transform="translate(146.651 -61.063)" fill="none" stroke="#263238" stroke-linecap="round" stroke-linejoin="round" stroke-width="1"/>
      <path id="Path_763" data-name="Path 763" d="M324.976,150.114s-8.343-6.9-10.846,0" transform="translate(126.142 -60.234)" fill="none" stroke="#263238" stroke-linecap="round" stroke-linejoin="round" stroke-width="1"/>
      <path id="Path_764" data-name="Path 764" d="M336.444,156.549c.657,2.528,0,4.854-1.618,5.259s-3.337-1.289-3.969-3.792,0-4.854,1.618-5.259S335.812,154.046,336.444,156.549Z" transform="translate(151.334 -51.6)" fill="#263238"/>
      <path id="Path_765" data-name="Path 765" d="M324.215,156.549c.657,2.528,0,4.854-1.618,5.259s-3.337-1.289-3.995-3.792,0-4.854,1.643-5.259S323.583,154.046,324.215,156.549Z" transform="translate(132.592 -51.6)" fill="#263238"/>
      <path id="Path_766" data-name="Path 766" d="M322.279,150.47c6.346,8.723.48,19.72-1.593,28.215s10.77,7.964,14.361,5.057" transform="translate(135.817 -55.002)" fill="none" stroke="#263238" stroke-linecap="round" stroke-linejoin="round" stroke-width="1"/>
      <path id="Path_767" data-name="Path 767" d="M404.41,209.444s-5.385-17.066,6.169-25.51,10.77,42.475,10.77,42.475l11.023,6.169s15.9-42.07,8.217-72.865S401.755,107.1,358.774,118.73c-57.67,15.574-44.7,62.8-44.7,62.8s2.528-13.349,5.259-12.641,11.883,9.481,56.608-5.916c0,0,5.057,4.374,3.919,15.17s18.052,20.4,21.035,38.379Z" transform="translate(124.149 -108.363)" fill="#999"/>
      <g id="Group_9628" data-name="Group 9628" transform="translate(436.976 7.191)" clip-path="url(#clip-path-2)">
        <path id="Path_768" data-name="Path 768" d="M404.41,209.444s-5.385-17.066,6.169-25.51,10.77,42.475,10.77,42.475l11.023,6.169s15.9-42.07,8.217-72.865S401.755,107.1,358.774,118.73c-57.67,15.574-44.7,62.8-44.7,62.8s2.528-13.349,5.259-12.641,11.883,9.481,56.608-5.916c0,0,5.057,4.374,3.919,15.17s18.052,20.4,21.035,38.379Z" transform="translate(-312.826 -115.554)" opacity="0.4"/>
      </g>
      <path id="Path_770" data-name="Path 770" d="M404.41,209.444s-5.385-17.066,6.169-25.51,10.77,42.475,10.77,42.475l11.023,6.169s15.9-42.07,8.217-72.865S401.755,107.1,358.774,118.73c-57.67,15.574-44.7,62.8-44.7,62.8s2.528-13.349,5.259-12.641,11.883,9.481,56.608-5.916c0,0,5.057,4.374,3.919,15.17s18.052,20.4,21.035,38.379Z" transform="translate(124.149 -108.363)" fill="none" stroke="#263238" stroke-linecap="round" stroke-linejoin="round" stroke-width="1"/>
      <path id="Path_771" data-name="Path 771" d="M319.656,186.725a23.361,23.361,0,0,0,11.908,1.214l2.528,2.806,2.3-2.528s14.108,1.846,21.035,0,14.108,2.528,17.7,2.528c0,0,15.372-18.456,13.855-27.963a81.9,81.9,0,0,0-2.528-12.313s2.908,2.655,4.45,2.149a2.528,2.528,0,0,0,1.972-2.149s14.942,30.339,14.613,54.914c0,0-17.091,28.392-39.744,30.01-25.409,1.8-38.607-8.09-38.607-8.09a55.065,55.065,0,0,1-2.2-24.752,23.866,23.866,0,0,0-6.017-4.5,38.553,38.553,0,0,1-1.264-11.327Z" transform="translate(134.546 -55.002)" fill="#263238"/>
      <path id="Path_772" data-name="Path 772" d="M321.835,173.313a19.645,19.645,0,0,1-10.416-20.782c2.377-14.714,13.324-19.847,21.187-24.271,0,0,16.029-13.7,45.837-15.4,35.9-2.048,70.791,16.762,62.6,44.5,0,0-50.565-21.566-62.6,10.113C378.443,167.4,343.654,187.572,321.835,173.313Z" transform="translate(121.572 -112.71)" fill="#263238"/>
      <path id="Path_773" data-name="Path 773" d="M350.14,156.139s11.276-21.667,18.81-14.487,5.461,17.7,2.908,27.811-3.438,8.394-8.217,13-9.86,9.279-11.63,4.273a18.077,18.077,0,0,1-.91-9" transform="translate(181.175 -70.708)" fill="#bfbfbf" stroke="#263238" stroke-linecap="round" stroke-linejoin="round" stroke-width="1"/>
      <path id="Path_774" data-name="Path 774" d="M354.01,172.908c-20.226.506-26.85-2.528-26.85-2.528a2.275,2.275,0,0,1-2.25.986l3.337,6.9s3.337,2.073,11.984,2.073C347.538,180.341,354.01,172.908,354.01,172.908Z" transform="translate(142.617 -24.574)" fill="#fff"/>
      <path id="Path_775" data-name="Path 775" d="M330.51,154.007s-8.217-16.434,13.324-26.42,56.431-6.169,64.9,5.057" transform="translate(148.823 -98.789)" fill="none" stroke="#fff" stroke-linecap="round" stroke-linejoin="round" stroke-width="1" opacity="0.2"/>
      <path id="Path_776" data-name="Path 776" d="M328.377,168.664s-23.665-1.011-6.093-24.094,54.787-30.339,54.787-30.339" transform="translate(128.682 -110.386)" fill="none" stroke="#fff" stroke-linecap="round" stroke-linejoin="round" stroke-width="1" opacity="0.2"/>
      <path id="Path_777" data-name="Path 777" d="M419.718,184.33a71.019,71.019,0,0,1-34.056,47.531s-16.333-24.322-24.929-23.766c-4.2.253-10.593,13.1-10.593,13.1" transform="translate(181.175 -3.255)" fill="none" stroke="#263238" stroke-linecap="round" stroke-linejoin="round" stroke-width="1"/>
      <path id="Path_778" data-name="Path 778" d="M329.185,190c-2.933,11.63-.885,34.738-.885,34.738s7.1-23.058,9.936-25.283c5.056-4.1,20.782,15.9,20.782,15.9" transform="translate(146.735 5.41)" fill="none" stroke="#263238" stroke-linecap="round" stroke-linejoin="round" stroke-width="1"/>
      <path id="Path_779" data-name="Path 779" d="M351.984,203.13,340,210.993s13.5,15.043,11.908,28.721,3.261,43.79,3.261,43.79" transform="translate(165.678 25.476)" fill="none" stroke="#263238" stroke-linecap="round" stroke-linejoin="round" stroke-width="1"/>
      <path id="Path_780" data-name="Path 780" d="M368.754,331.839a91.953,91.953,0,0,1,9.405,52.108s-17.7,24.524-31.275,28.19c-33.019,8.9-52.917-64.5-92.585-163.048-2.528-6.321,20-39.719,20-39.719l65.507,101.914a38.354,38.354,0,0,1,28.949,20.555Z" transform="translate(34.403 35.013)" fill="#bfbfbf" stroke="#263238" stroke-linecap="round" stroke-linejoin="round" stroke-width="1"/>
      <path id="Path_781" data-name="Path 781" d="M303.165,231.255,286.352,208.5s-25.283-14.512-28.089-5.84c-4.121,13-24.853,16.838-24.853,16.838,1.82,6.649,22.072,36.281,33.55,42.981s12.641,8.672,17.369,10.113c12.009,3.211,14.866-5.41,14.866-5.41" transform="translate(2.78 20.536)" fill="#bfbfbf" stroke="#263238" stroke-linecap="round" stroke-linejoin="round" stroke-width="1"/>
      <path id="Path_782" data-name="Path 782" d="M229.326,325.337s-92.357-85.809,22.35-116.806,84.545,82.523,84.545,82.523l-7.585,1.315S358.7,190.783,255.57,217.279,233.6,320.154,233.6,320.154Z" transform="translate(-57.177 25.536)" fill="#757575" stroke="#263238" stroke-linecap="round" stroke-linejoin="round" stroke-width="1"/>
      <path id="Path_783" data-name="Path 783" d="M295.093,251.454c-19.392-9.456-12.641-26.774-31.5-37.7-5.057-2.933-21.465-1.138-26.648-4.778-7.787-5.436-5.057-9.178-4.854-9.835.253-1.492,5.714,3.363,24.322-1.9,7.433-2.1,27.811,4.273,34.182,9.835,14.967,13,27.988,28.317,26.572,40.3-.809,6.9-8.495,9.683-8.495,9.683" transform="translate(-0.196 15.86)" fill="#bfbfbf" stroke="#263238" stroke-linecap="round" stroke-linejoin="round" stroke-width="1"/>
      <path id="Path_784" data-name="Path 784" d="M238.906,209.209s16.257-3.969,21.44-3.919c7.13,0,9.38,1.062,11.074,4.1a7.913,7.913,0,0,1-.3,6.776,11.959,11.959,0,0,1,5.84,6.043,11.225,11.225,0,0,1-1.643,8.318,16.94,16.94,0,0,1,7.408,4.5,5.587,5.587,0,0,1,.4,7.585s9.152,6.27,4.07,10.113-18.962,9.38-25.283,8.773S215.974,212.723,238.906,209.209Z" transform="translate(0.369 28.777)" fill="#bfbfbf" stroke="#263238" stroke-linecap="round" stroke-linejoin="round" stroke-width="1"/>
      <path id="Path_785" data-name="Path 785" d="M267.237,209.59S241.4,217.5,234.37,217.326" transform="translate(4.248 35.349)" fill="none" stroke="#263238" stroke-linecap="round" stroke-linejoin="round" stroke-width="1"/>
      <path id="Path_786" data-name="Path 786" d="M265.032,215.27s-22,7.914-26.521,8.8" transform="translate(10.575 44.029)" fill="none" stroke="#263238" stroke-linecap="round" stroke-linejoin="round" stroke-width="1"/>
      <path id="Path_787" data-name="Path 787" d="M266.761,220a202.768,202.768,0,0,1-24.221,8.394" transform="translate(16.733 51.258)" fill="none" stroke="#263238" stroke-linecap="round" stroke-linejoin="round" stroke-width="1"/>
      <path id="Path_788" data-name="Path 788" d="M207.4,270.988s28.316-48.442,98.6-39.77l57.771,120.244s-36.255,68.769-138.827,52.487Z" transform="translate(-36.97 66.814)" fill="#757575" stroke="#263238" stroke-linecap="round" stroke-linejoin="round" stroke-width="1"/>
      <path id="Path_789" data-name="Path 789" d="M280.819,296.519s-61.816-45.863-103.659.86l19.013,14.234s19.493-40.983,85.329,9.607" transform="translate(-83.184 137.433)" fill="#757575" stroke="#263238" stroke-linecap="round" stroke-linejoin="round" stroke-width="1"/>
      <path id="Path_790" data-name="Path 790" d="M209.73,268.879s66.67,6.573,87.326-36.989" transform="translate(-33.409 69.429)" fill="#757575" stroke="#263238" stroke-linecap="round" stroke-linejoin="round" stroke-width="1"/>
      <path id="Path_791" data-name="Path 791" d="M163.23,292.261s26.243-18.431,49.5-4.854a36.179,36.179,0,0,1,17.7,37.924S195.516,328.061,163.23,292.261Z" transform="translate(-104.473 146.647)" fill="#757575" stroke="#263238" stroke-linecap="round" stroke-linejoin="round" stroke-width="1"/>
      <path id="Path_792" data-name="Path 792" d="M168.31,286.35s40.806,10.9,54.459,33.019" transform="translate(-96.71 152.658)" fill="none" stroke="#263238" stroke-linecap="round" stroke-linejoin="round" stroke-width="1"/>
      <path id="Path_793" data-name="Path 793" d="M254.854,246.158l-4.728-19.7s-26.319-.708-35.4,14.436l11.731,15.523" transform="translate(-25.768 61.128)" fill="#757575" stroke="#263238" stroke-linecap="round" stroke-linejoin="round" stroke-width="1"/>
      <path id="Path_794" data-name="Path 794" d="M240.209,235.88a42.98,42.98,0,0,1-16.889,5.183" transform="translate(-12.64 75.527)" fill="none" stroke="#263238" stroke-linecap="round" stroke-linejoin="round" stroke-width="1"/>
      <path id="Path_795" data-name="Path 795" d="M222.207,285.9s5.941,8.065-1.517,18.33" transform="translate(-16.659 151.971)" fill="none" stroke="#263238" stroke-linecap="round" stroke-linejoin="round" stroke-width="1"/>
      <path id="Path_796" data-name="Path 796" d="M539.062,282.928s-24.448,84.292-78.376,126.413c-24.625,19.24-137.335-11.807-137.335-11.807l7.307-43.688,36.913-17.5S432.9,234.082,468.3,223.944,539.062,282.928,539.062,282.928Z" transform="translate(140.233 55.733)" fill="#ffc100" opacity="0.2"/>
      <path id="Path_797" data-name="Path 797" d="M460.273,201.035c-26.016.733-94.405,126.059-94.405,126.059-18.532,7.029-9.708,23.26-9.708,23.26s43.461,55.116,51.678,59.819c20.226,11.63,27.533-8.723,27.533-8.723s85.4-77.592,79.59-140.774-25.283-61.765-25.283-61.765" transform="translate(187.165 19.025)" fill="#fff" stroke="#263238" stroke-linecap="round" stroke-linejoin="round" stroke-width="1"/>
      <path id="Path_798" data-name="Path 798" d="M544.032,256.87l-26.041,28.14c-55.344-5.385-156.247,36.533-185.423,21.288-16.965-8.874-57.7.253-63.763,3.312s-18.886,18.937-14.133,20.985,15.17-7.433,21.086-6.574a93.537,93.537,0,0,0,16.358-.152s-25.662,24.347-31.4,25.384-34.89,13.476-24.322,15.65c14.79,3.034,20.428,1.517,20.428,1.517s13.349,9.481,23.285,10.492c5.057.531,33.12-4.526,33.12-4.526l25.637-24.448s170.607,8.874,200.618-3.742c39.138-16.434,51.678-30.01,51.678-30.01S574.6,266.149,544.032,256.87Z" transform="translate(3.843 107.605)" fill="#bfbfbf" stroke="#263238" stroke-linecap="round" stroke-linejoin="round" stroke-width="1"/>
      <path id="Path_799" data-name="Path 799" d="M349.8,338.51c-.582-.126-13.2,74.559,4.652,90.36,0,0,10.315,35.674,8.394,60.2S374.327,563.5,374.327,563.5l8.95,56.608" transform="translate(173.219 232.373)" fill="none" stroke="#263238" stroke-linecap="round" stroke-linejoin="round" stroke-width="1"/>
      <path id="Path_800" data-name="Path 800" d="M360.726,339.38s-6.321,36.963-3.792,50.237-2.958,26.9-10.644,27.356" transform="translate(175.291 233.702)" fill="none" stroke="#263238" stroke-linecap="round" stroke-linejoin="round" stroke-width="1"/>
      <path id="Path_801" data-name="Path 801" d="M398.63,334.92s11.478,61.563,30.339,66.645" transform="translate(255.28 226.886)" fill="none" stroke="#263238" stroke-linecap="round" stroke-linejoin="round" stroke-width="1"/>
      <path id="Path_802" data-name="Path 802" d="M407.75,331.56a425.018,425.018,0,0,1,7.18,93.546c-1.492,54.206,10.77,162.921,11.908,176.195a225.025,225.025,0,0,1,0,29.429" transform="translate(269.218 221.751)" fill="none" stroke="#263238" stroke-linecap="round" stroke-linejoin="round" stroke-width="1"/>
      <path id="Path_803" data-name="Path 803" d="M413.4,366.67c-4.854,2.1-64.269,19.8-75.646,33.7" transform="translate(162.24 275.409)" fill="none" stroke="#263238" stroke-linecap="round" stroke-linejoin="round" stroke-width="1"/>
      <path id="Path_804" data-name="Path 804" d="M352,380.56s41.034,49.782,60.956,54.838" transform="translate(184.017 296.636)" fill="none" stroke="#263238" stroke-linecap="round" stroke-linejoin="round" stroke-width="1"/>
      <path id="Path_805" data-name="Path 805" d="M389.739,382.5s-63.03,61.943-74.129,54.914" transform="translate(128.404 299.601)" fill="none" stroke="#263238" stroke-linecap="round" stroke-linejoin="round" stroke-width="1"/>
      <path id="Path_806" data-name="Path 806" d="M366.1,411s-17.394,68.769-16.232,76.4-5.916,21.92-5.916,21.92" transform="translate(171.715 343.156)" fill="none" stroke="#263238" stroke-linecap="round" stroke-linejoin="round" stroke-width="1"/>
      <path id="Path_807" data-name="Path 807" d="M346.9,304.37s3.818,19.822,0,31.881.354,30.339,5.587,31.3" transform="translate(173.952 180.198)" fill="none" stroke="#263238" stroke-linecap="round" stroke-linejoin="round" stroke-width="1"/>
      <path id="Path_808" data-name="Path 808" d="M288,249.68s20.226,21.844,20.226,38.809" transform="translate(86.208 96.617)" fill="none" stroke="#263238" stroke-linecap="round" stroke-linejoin="round" stroke-width="1"/>
      <path id="Path_809" data-name="Path 809" d="M189.18,304.37s-1.669,5.385-4.02,14.613" transform="translate(-70.958 180.198)" fill="none" stroke="#263238" stroke-linecap="round" stroke-linejoin="round" stroke-width="1"/>
      <path id="Path_810" data-name="Path 810" d="M186.511,316.09c-1.492,6.75-3.084,14.411-4.6,22.754" transform="translate(-75.925 198.109)" fill="none" stroke="#263238" stroke-linecap="round" stroke-linejoin="round" stroke-width="1" stroke-dasharray="6.114 6.114"/>
      <path id="Path_811" data-name="Path 811" d="M182.75,328.1c-.784,4.829-1.567,9.835-2.25,15.018" transform="translate(-78.08 216.463)" fill="none" stroke="#263238" stroke-linecap="round" stroke-linejoin="round" stroke-width="1"/>
      <path id="Path_812" data-name="Path 812" d="M177.715,299.16s-3.11,4.829-7.585,13.1" transform="translate(-93.928 172.235)" fill="none" stroke="#263238" stroke-linecap="round" stroke-linejoin="round" stroke-width="1"/>
      <path id="Path_813" data-name="Path 813" d="M173.663,312.07a314.534,314.534,0,0,0-12.313,30.339" transform="translate(-107.346 191.965)" fill="none" stroke="#263238" stroke-linecap="round" stroke-linejoin="round" stroke-width="1" stroke-dasharray="8.659 8.659"/>
      <path id="Path_814" data-name="Path 814" d="M162.323,328.23q-2.124,7.206-3.843,14.689" transform="translate(-111.732 216.662)" fill="none" stroke="#263238" stroke-linecap="round" stroke-linejoin="round" stroke-width="1"/>
      <path id="Path_815" data-name="Path 815" d="M171.208,290.92a56.509,56.509,0,0,0-13.2,7.383" transform="translate(-112.451 159.643)" fill="none" stroke="#263238" stroke-linecap="round" stroke-linejoin="round" stroke-width="1"/>
      <path id="Path_816" data-name="Path 816" d="M163.614,298a159.742,159.742,0,0,0-18.2,18.3" transform="translate(-131.707 170.463)" fill="none" stroke="#263238" stroke-linecap="round" stroke-linejoin="round" stroke-width="1" stroke-dasharray="6.815 6.815"/>
      <path id="Path_817" data-name="Path 817" d="M148.333,307.91a133.748,133.748,0,0,0-8.343,12.641" transform="translate(-139.99 185.608)" fill="none" stroke="#263238" stroke-linecap="round" stroke-linejoin="round" stroke-width="1"/>
      <path id="Path_818" data-name="Path 818" d="M358.73,249.61c19.013,2.882,46.823,37.646,51.88,50.919" transform="translate(194.303 96.51)" fill="none" stroke="#263238" stroke-linecap="round" stroke-linejoin="round" stroke-width="1"/>
      <path id="Path_819" data-name="Path 819" d="M470.394,231.89S424.759,259.7,379.25,262.507" transform="translate(225.662 69.429)" fill="none" stroke="#263238" stroke-linecap="round" stroke-linejoin="round" stroke-width="1"/>
      <path id="Path_820" data-name="Path 820" d="M287,244.317s23.462-4.753,35.4,14.36a127.093,127.093,0,0,1,15.8,38.733" transform="translate(84.68 87.619)" fill="none" stroke="#263238" stroke-linecap="round" stroke-linejoin="round" stroke-width="1"/>
      <path id="Path_821" data-name="Path 821" d="M300,227.46s11.352,24.9,24.651,35.244" transform="translate(104.548 62.659)" fill="none" stroke="#263238" stroke-linecap="round" stroke-linejoin="round" stroke-width="1"/>
      <path id="Path_822" data-name="Path 822" d="M346,256a208.718,208.718,0,0,1,.961,30.339" transform="translate(174.848 106.276)" fill="none" stroke="#263238" stroke-linecap="round" stroke-linejoin="round" stroke-width="1"/>
      <path id="Path_823" data-name="Path 823" d="M331.5,302s49.933,56.2,127.045,41.059" transform="translate(152.688 176.576)" fill="none" stroke="#263238" stroke-linecap="round" stroke-linejoin="round" stroke-width="1"/>
      <path id="Path_824" data-name="Path 824" d="M351.092,210.788a2.832,2.832,0,1,1-2.832-2.958,2.907,2.907,0,0,1,2.832,2.958Z" transform="translate(173.978 32.659)" fill="#263238"/>
      <path id="Path_825" data-name="Path 825" d="M352.482,240.238a2.832,2.832,0,1,1-2.832-2.958,2.882,2.882,0,0,1,2.831,2.958Z" transform="translate(176.103 77.666)" fill="#263238"/>
    </g>
    <g id="freepik--Plant--inject-62" transform="translate(922.161 595.492)">
      <path id="Path_826" data-name="Path 826" d="M123.52,563.616s40.831-14.335,14.234-95.012,7.433-78.907,22.6-119.713-7.231-68.44-7.231-68.44" transform="translate(-14.805 -225.623)" fill="none" stroke="#263238" stroke-linecap="round" stroke-linejoin="round" stroke-width="3"/>
      <path id="Path_827" data-name="Path 827" d="M203.328,384.56H84.5s16.029,120.75,20.656,155.691c.834,6.346,5.891,9.481,12.009,9.481H281.907c6.118,0,11.175-3.135,12.009-9.481,4.627-34.941,20.656-155.691,20.656-155.691Z" transform="translate(-74.438 -66.516)" fill="#263238"/>
      <path id="Path_828" data-name="Path 828" d="M86.183,380.591h238.87a5.638,5.638,0,0,1,5.638,5.638v8.925a5.638,5.638,0,0,1-5.638,5.638H86.183a5.663,5.663,0,0,1-5.663-5.663V386.2a5.663,5.663,0,0,1,5.663-5.663Z" transform="translate(-80.52 -72.659)" fill="#263238"/>
      <line id="Line_100" data-name="Line 100" x2="120.522" transform="translate(22.729 328.157)" fill="none" stroke="#fff" stroke-linecap="round" stroke-linejoin="round" stroke-width="1"/>
      <line id="Line_101" data-name="Line 101" x2="9.279" transform="translate(158.421 328.157)" fill="none" stroke="#fff" stroke-linecap="round" stroke-linejoin="round" stroke-width="1"/>
      <line id="Line_102" data-name="Line 102" x1="16.864" transform="translate(206.458 328.157)" fill="none" stroke="#fff" stroke-linecap="round" stroke-linejoin="round" stroke-width="1"/>
      <line id="Line_103" data-name="Line 103" x2="47.203" transform="translate(32.008 367.75)" fill="none" stroke="#fff" stroke-linecap="round" stroke-linejoin="round" stroke-width="1"/>
      <line id="Line_104" data-name="Line 104" x2="12.641" transform="translate(106.162 367.75)" fill="none" stroke="#fff" stroke-linecap="round" stroke-linejoin="round" stroke-width="1"/>
      <line id="Line_105" data-name="Line 105" x1="45.509" transform="translate(174.425 367.75)" fill="none" stroke="#fff" stroke-linecap="round" stroke-linejoin="round" stroke-width="1"/>
      <line id="Line_106" data-name="Line 106" x1="8.419" transform="translate(206.458 400.617)" fill="none" stroke="#fff" stroke-linecap="round" stroke-linejoin="round" stroke-width="1"/>
      <line id="Line_107" data-name="Line 107" x1="17.698" transform="translate(61.513 400.617)" fill="none" stroke="#fff" stroke-linecap="round" stroke-linejoin="round" stroke-width="1"/>
      <line id="Line_108" data-name="Line 108" x2="29.075" transform="translate(163.048 432.651)" fill="none" stroke="#fff" stroke-linecap="round" stroke-linejoin="round" stroke-width="1"/>
      <line id="Line_109" data-name="Line 109" x1="45.509" transform="translate(49.706 432.651)" fill="none" stroke="#fff" stroke-linecap="round" stroke-linejoin="round" stroke-width="1"/>
      <line id="Line_110" data-name="Line 110" x2="15.17" transform="translate(40.427 461.296)" fill="none" stroke="#fff" stroke-linecap="round" stroke-linejoin="round" stroke-width="1"/>
      <line id="Line_111" data-name="Line 111" x2="88.489" transform="translate(79.211 461.296)" fill="none" stroke="#fff" stroke-linecap="round" stroke-linejoin="round" stroke-width="1"/>
      <line id="Line_112" data-name="Line 112" x1="13.501" transform="translate(197.179 461.296)" fill="none" stroke="#fff" stroke-linecap="round" stroke-linejoin="round" stroke-width="1"/>
      <path id="Path_829" data-name="Path 829" d="M199.651,441.445a43.381,43.381,0,1,1,0-.008Z" transform="translate(-31.142 -45.884)" fill="#ffc100" stroke="#263238" stroke-linecap="round" stroke-linejoin="round" stroke-width="1"/>
      <path id="Path_830" data-name="Path 830" d="M134.055,409.078V406.17h6.776v2.908c5.866.91,8.849,4.247,8.849,9.557v1.239h-7.812v-1.492c0-2.806-1.492-3.868-4.121-3.868s-4.121,1.062-4.121,3.868,1.492,4.728,7.054,8.04c6.75,4.02,9.076,7.079,9.076,11.554,0,5.309-3.059,8.722-8.925,9.607v2.857h-6.776v-2.983c-5.916-.885-8.925-4.3-8.925-9.607v-2.68h7.812v3.085c0,2.781,1.643,3.792,4.273,3.792s4.3-1.011,4.3-3.792-1.517-4.8-7.079-8.065c-6.75-3.944-9.076-7.079-9.076-11.554C125.358,413.325,128.29,410.038,134.055,409.078Z" transform="translate(-12.344 -33.49)" fill="#fff" stroke="#263238" stroke-linecap="round" stroke-linejoin="round" stroke-width="1"/>
      <path id="Path_831" data-name="Path 831" d="M187.805,436.952A36.028,36.028,0,1,1,151.778,401a36.028,36.028,0,0,1,36.028,35.952Z" transform="translate(-26.679 -41.391)" fill="none" stroke="#263238" stroke-linecap="round" stroke-linejoin="round" stroke-width="1"/>
      <path id="Path_832" data-name="Path 832" d="M127.86,399.319s8.672-44.927,44.978-48.442S213.29,318.92,213.29,318.92" transform="translate(-8.172 -166.831)" fill="none" stroke="#263238" stroke-linecap="round" stroke-linejoin="round" stroke-width="3"/>
      <path id="Path_833" data-name="Path 833" d="M173.445,365.758s-8.824-4.247-41.539-24.17-31.452-51.678-31.452-51.678" transform="translate(-50.066 -211.166)" fill="none" stroke="#263238" stroke-linecap="round" stroke-linejoin="round" stroke-width="3"/>
      <path id="Path_834" data-name="Path 834" d="M176.547,399.956S112.506,397.427,103,344.89" transform="translate(-46.165 -127.142)" fill="none" stroke="#263238" stroke-linecap="round" stroke-linejoin="round" stroke-width="3"/>
      <path id="Path_835" data-name="Path 835" d="M182.879,291.14a28.873,28.873,0,1,1-25.156-32.159,28.873,28.873,0,0,1,25.156,32.159Z" transform="translate(-12.019 -258.764)" fill="#fff"/>
      <path id="Path_836" data-name="Path 836" d="M182.879,291.14a28.873,28.873,0,1,1-25.156-32.159,28.873,28.873,0,0,1,25.156,32.159Z" transform="translate(-12.019 -258.764)" fill="none" stroke="#263238" stroke-linecap="round" stroke-linejoin="round" stroke-width="1"/>
      <path id="Path_837" data-name="Path 837" d="M174,287.106a23.311,23.311,0,1,1-20.226-25.965A23.311,23.311,0,0,1,174,287.106Z" transform="translate(-8.648 -255.413)" fill="none" stroke="#263238" stroke-linecap="round" stroke-linejoin="round" stroke-width="1"/>
      <path id="Path_838" data-name="Path 838" d="M137.368,267.786a5.056,5.056,0,0,1,3.438-1.694l.228-1.921,3.337.4-.253,1.922a5.057,5.057,0,0,1,3.009,2.528,7.585,7.585,0,0,1,.581,4.4v.809l-3.843-.455.126-1.087a2.832,2.832,0,0,0-.278-2,1.871,1.871,0,0,0-1.441-.784,1.8,1.8,0,0,0-1.568.43,2.857,2.857,0,0,0-.758,1.871,4.425,4.425,0,0,0,.2,2.1,7.587,7.587,0,0,0,.935,1.719c.379.506.961,1.138,1.669,1.921a19.429,19.429,0,0,1,2.073,2.351,8.267,8.267,0,0,1,1.239,2.528,7.863,7.863,0,0,1,.228,3.312,7.585,7.585,0,0,1-1.643,4.146,5.056,5.056,0,0,1-3.514,1.669l-.228,1.871-3.337-.4.253-1.871a5.056,5.056,0,0,1-3.034-2.528,7.357,7.357,0,0,1-.582-4.4l.2-1.77,3.843.455L138,285.332c-.2,1.669.4,2.528,1.8,2.781s2.2-.581,2.4-2.25a4.577,4.577,0,0,0-.2-2.124,6.624,6.624,0,0,0-.935-1.719,21.241,21.241,0,0,0-1.669-1.9,21.891,21.891,0,0,1-2.073-2.377,8.242,8.242,0,0,1-1.213-2.528,8.545,8.545,0,0,1,1.365-7.383Z" transform="translate(1.358 -250.503)" fill="#263238"/>
      <path id="Path_839" data-name="Path 839" d="M146.909,295.749A28.873,28.873,0,1,1,114.4,271.022,28.873,28.873,0,0,1,146.909,295.749Z" transform="translate(-66.915 -240.442)" fill="#fff"/>
      <path id="Path_840" data-name="Path 840" d="M146.909,295.749A28.873,28.873,0,1,1,114.4,271.022,28.873,28.873,0,0,1,146.909,295.749Z" transform="translate(-66.915 -240.442)" fill="none" stroke="#263238" stroke-linecap="round" stroke-linejoin="round" stroke-width="1"/>
      <path id="Path_841" data-name="Path 841" d="M138.062,293.181a23.311,23.311,0,1,1-8.977-15.493A23.311,23.311,0,0,1,138.062,293.181Z" transform="translate(-63.529 -237.141)" fill="none" stroke="#263238" stroke-linecap="round" stroke-linejoin="round" stroke-width="1"/>
      <path id="Path_842" data-name="Path 842" d="M98.727,281.035a5.056,5.056,0,0,1,2.908-2.528l-.278-1.921,3.312-.455.278,1.922a5.057,5.057,0,0,1,3.514,1.618,7.585,7.585,0,0,1,1.694,4.1v.809l-3.843.506-.126-1.062a2.933,2.933,0,0,0-.784-1.846,2.174,2.174,0,0,0-3.009.4,2.857,2.857,0,0,0-.253,2,4.222,4.222,0,0,0,.733,1.972,6.622,6.622,0,0,0,1.34,1.441c.506.379,1.188.86,2.1,1.416a21.848,21.848,0,0,1,2.528,1.77,7.839,7.839,0,0,1,1.82,2.1,7.434,7.434,0,0,1,1.062,3.135,7.282,7.282,0,0,1-.531,4.424,5.057,5.057,0,0,1-2.983,2.528l.253,1.9-3.312.43-.253-1.871a5.057,5.057,0,0,1-3.565-1.618,7.333,7.333,0,0,1-1.669-4.121l-.253-1.744,3.843-.531.278,2.023c.2,1.669,1.037,2.528,2.528,2.225s1.972-1.138,1.744-2.806a4.222,4.222,0,0,0-.733-1.972,6.623,6.623,0,0,0-1.34-1.441c-.506-.379-1.188-.86-2.1-1.416a22,22,0,0,1-2.528-1.745,8.4,8.4,0,0,1-1.82-2.124,8.8,8.8,0,0,1-.556-7.585Z" transform="translate(-53.623 -232.225)" fill="#263238"/>
      <path id="Path_843" data-name="Path 843" d="M146.352,351.332a28.848,28.848,0,1,1-10.041-19.692A28.873,28.873,0,0,1,146.352,351.332Z" transform="translate(-68.026 -157.932)" fill="#fff"/>
      <path id="Path_844" data-name="Path 844" d="M146.352,351.332a28.848,28.848,0,1,1-10.041-19.692A28.873,28.873,0,0,1,146.352,351.332Z" transform="translate(-68.026 -157.932)" fill="none" stroke="#263238" stroke-linecap="round" stroke-linejoin="round" stroke-width="1"/>
      <path id="Path_845" data-name="Path 845" d="M137.444,348.358a23.311,23.311,0,1,1-25.106-21.313A23.311,23.311,0,0,1,137.444,348.358Z" transform="translate(-64.655 -154.528)" fill="none" stroke="#263238" stroke-linecap="round" stroke-linejoin="round" stroke-width="1"/>
      <path id="Path_846" data-name="Path 846" d="M98.327,334.751a5.057,5.057,0,0,1,3.034-2.351l-.152-1.922,3.337-.278.152,1.921a5.057,5.057,0,0,1,3.413,1.8,7.585,7.585,0,0,1,1.466,4.2v.809l-3.843.3v-1.062a2.857,2.857,0,0,0-.657-1.9,2.174,2.174,0,0,0-3.034.227,2.908,2.908,0,0,0-.379,2,4.551,4.551,0,0,0,.632,2,6.725,6.725,0,0,0,1.264,1.517,20.224,20.224,0,0,0,2.023,1.542,24.532,24.532,0,0,1,2.528,1.9,8.471,8.471,0,0,1,1.694,2.2,7.812,7.812,0,0,1,.885,3.211,7.383,7.383,0,0,1-.784,4.374,5.057,5.057,0,0,1-3.11,2.326l.152,1.9-3.337.278-.152-1.9a5.056,5.056,0,0,1-3.464-1.82,7.584,7.584,0,0,1-1.441-4.2l-.152-1.77,3.868-.329.152,2.048c0,1.694.91,2.528,2.3,2.351s2.048-1.011,1.921-2.68a4.652,4.652,0,0,0-.632-2.023,6.728,6.728,0,0,0-1.264-1.517c-.48-.4-1.138-.91-2.023-1.517a21.372,21.372,0,0,1-2.528-1.922,8.522,8.522,0,0,1-1.719-2.2,7.988,7.988,0,0,1-.885-3.186,7.18,7.18,0,0,1,.733-4.323Z" transform="translate(-54.538 -149.592)" fill="#263238"/>
      <path id="Path_847" data-name="Path 847" d="M211.364,340.431A28.873,28.873,0,1,1,197.307,302.1,28.873,28.873,0,0,1,211.364,340.431Z" transform="translate(35.268 -196.635)" fill="#fff"/>
      <path id="Path_848" data-name="Path 848" d="M211.364,340.431A28.873,28.873,0,1,1,197.307,302.1,28.873,28.873,0,0,1,211.364,340.431Z" transform="translate(35.268 -196.635)" fill="none" stroke="#263238" stroke-linecap="round" stroke-linejoin="round" stroke-width="1"/>
      <path id="Path_849" data-name="Path 849" d="M202.954,334.748a23.285,23.285,0,1,1,.754-17.842,23.311,23.311,0,0,1-.754,17.842Z" transform="translate(38.647 -193.277)" fill="none" stroke="#263238" stroke-linecap="round" stroke-linejoin="round" stroke-width="1"/>
      <path id="Path_850" data-name="Path 850" d="M173.347,307.451a5.057,5.057,0,0,1,3.792-.556l.809-1.745,3.034,1.416-.809,1.744a5.057,5.057,0,0,1,2.1,3.236,7.584,7.584,0,0,1-.784,4.374l-.354.733-3.489-1.618.43-.986a2.933,2.933,0,0,0,.354-2,1.82,1.82,0,0,0-1.112-1.188,1.9,1.9,0,0,0-1.643,0,3.008,3.008,0,0,0-1.29,1.542,4.475,4.475,0,0,0-.455,2.073,6.8,6.8,0,0,0,.354,1.922c.228.607.556,1.391,1.011,2.326a24.014,24.014,0,0,1,1.239,2.882,8.7,8.7,0,0,1,.4,2.781,7.964,7.964,0,0,1-.784,3.211,7.584,7.584,0,0,1-2.857,3.438,5.057,5.057,0,0,1-3.843.506l-.809,1.719-3.034-1.416.708-1.8a5.057,5.057,0,0,1-2.124-3.261,7.585,7.585,0,0,1,.784-4.4l.759-1.618,3.514,1.643-.86,1.846c-.708,1.517-.43,2.528.86,3.186s2.275,0,2.983-1.416a4.6,4.6,0,0,0,.43-2.048,6.168,6.168,0,0,0-.354-1.947,20.221,20.221,0,0,0-1.011-2.326,20.949,20.949,0,0,1-1.239-2.882,7.914,7.914,0,0,1-.379-2.756,7.383,7.383,0,0,1,.784-3.211A7.586,7.586,0,0,1,173.347,307.451Z" transform="translate(47.27 -187.875)" fill="#263238"/>
      <path id="Path_851" data-name="Path 851" d="M175.466,350.6c0,1.8,26.926-17.7,53.094-5.284,0,0-27.356,24.853-53.827,9.405s-22.754-53.346-22.754-53.346S177.589,319.245,175.466,350.6Z" transform="translate(28.414 -193.652)" fill="#ffc100" stroke="#263238" stroke-linecap="round" stroke-linejoin="round" stroke-width="1"/>
      <path id="Path_852" data-name="Path 852" d="M164.793,302c.86,1.568,13-29.5,41.818-33.3,0,0-9.506,35.724-40.124,37.09S118.45,273.3,118.45,273.3,149.548,274.515,164.793,302Z" transform="translate(-22.553 -243.58)" fill="#ffc100" stroke="#263238" stroke-linecap="round" stroke-linejoin="round" stroke-width="1"/>
      <path id="Path_853" data-name="Path 853" d="M132.5,318.632c1.112,1.416,8.192-31.2,36.028-39.492,0,0-3.742,36.786-33.727,42.98s-52.537-24.5-52.537-24.5S113.1,293.956,132.5,318.632Z" transform="translate(-77.861 -227.625)" fill="#ffc100" stroke="#263238" stroke-linecap="round" stroke-linejoin="round" stroke-width="1"/>
      <path id="Path_854" data-name="Path 854" d="M136.534,376.449c1.34,1.188,2.731-32.159,28.746-45.079,0,0,2.528,36.887-25.889,48.037s-55.95-15.17-55.95-15.17S113.223,355.363,136.534,376.449Z" transform="translate(-76.057 -147.804)" fill="#ffc100" stroke="#263238" stroke-linecap="round" stroke-linejoin="round" stroke-width="1"/>
      <line id="Line_126" data-name="Line 126" x2="120.522" transform="translate(629.512 328.157)" fill="none" stroke="#fff" stroke-linecap="round" stroke-linejoin="round" stroke-width="1"/>
      <line id="Line_127" data-name="Line 127" x2="9.279" transform="translate(765.204 328.157)" fill="none" stroke="#fff" stroke-linecap="round" stroke-linejoin="round" stroke-width="1"/>
      <line id="Line_128" data-name="Line 128" x1="16.864" transform="translate(813.241 328.157)" fill="none" stroke="#fff" stroke-linecap="round" stroke-linejoin="round" stroke-width="1"/>
      <line id="Line_129" data-name="Line 129" x2="47.203" transform="translate(638.791 367.75)" fill="none" stroke="#fff" stroke-linecap="round" stroke-linejoin="round" stroke-width="1"/>
      <line id="Line_130" data-name="Line 130" x2="12.641" transform="translate(712.945 367.75)" fill="none" stroke="#fff" stroke-linecap="round" stroke-linejoin="round" stroke-width="1"/>
      <line id="Line_131" data-name="Line 131" x1="45.509" transform="translate(781.208 367.75)" fill="none" stroke="#fff" stroke-linecap="round" stroke-linejoin="round" stroke-width="1"/>
      <line id="Line_132" data-name="Line 132" x1="8.419" transform="translate(813.241 400.617)" fill="none" stroke="#fff" stroke-linecap="round" stroke-linejoin="round" stroke-width="1"/>
      <line id="Line_133" data-name="Line 133" x1="17.698" transform="translate(668.296 400.617)" fill="none" stroke="#fff" stroke-linecap="round" stroke-linejoin="round" stroke-width="1"/>
      <line id="Line_134" data-name="Line 134" x2="29.075" transform="translate(769.831 432.651)" fill="none" stroke="#fff" stroke-linecap="round" stroke-linejoin="round" stroke-width="1"/>
      <line id="Line_135" data-name="Line 135" x1="45.509" transform="translate(656.489 432.651)" fill="none" stroke="#fff" stroke-linecap="round" stroke-linejoin="round" stroke-width="1"/>
      <line id="Line_136" data-name="Line 136" x2="15.17" transform="translate(647.21 461.296)" fill="none" stroke="#fff" stroke-linecap="round" stroke-linejoin="round" stroke-width="1"/>
      <line id="Line_137" data-name="Line 137" x2="88.489" transform="translate(685.994 461.296)" fill="none" stroke="#fff" stroke-linecap="round" stroke-linejoin="round" stroke-width="1"/>
      <line id="Line_138" data-name="Line 138" x1="13.501" transform="translate(803.963 461.296)" fill="none" stroke="#fff" stroke-linecap="round" stroke-linejoin="round" stroke-width="1"/>
      <path id="Path_876" data-name="Path 876" d="M373.091,434.073s-11.5-29.48,0-67.4" transform="translate(358.791 -93.856)" fill="none" stroke="#263238" stroke-linecap="round" stroke-linejoin="round" stroke-width="3"/>
    </g>
  </g>
</svg>
